<?xml version="1.0" encoding="UTF-8"?><svg id="Layer_1" xmlns="http://www.w3.org/2000/svg" viewBox="0 0 1403.08 2208"><defs><style>.cls-1{fill:#fff;}.cls-2{fill:none;stroke:#000;stroke-miterlimit:10;stroke-width:10px;}</style></defs><g><path d="m1077.41,1926.51l-.07-8.52c2.24-1.8,4.44-3.64,6.64-5.5l.07,8.64c-2.2,1.83-4.4,3.64-6.64,5.39Z"/><polygon points="1082.28 1642.52 1075.57 1638.81 1075.54 1631.17 1082.23 1634.86 1082.28 1642.52"/><polygon points="1080.74 1400.55 1082.23 1634.86 1075.54 1631.17 1074.05 1396.85 1080.74 1400.55"/><path d="m1077.34,1917.99l.07,8.52c-59.55,47.55-127.16,80.03-201.79,96.92l-.07-6.84c74.82-17.15,142.41-50.19,201.79-98.61Z"/><path d="m1075.57,1638.81l6.71,3.7,1.7,269.97c-2.2,1.87-4.4,3.7-6.64,5.5l-1.77-279.18Z"/><polygon points="1080.74 1400.55 1074.05 1396.85 1074 1389.21 1080.71 1392.91 1080.74 1400.55"/><polygon points="510.64 1085.96 510.64 1078.36 1074 1389.21 1074.05 1396.85 510.64 1085.96"/><path d="m875.55,2016.6l.07,6.84c-2.24.5-4.44,1-6.67,1.48l-.03-6.84c2.2-.47,4.44-.97,6.64-1.48Z"/><path d="m874.09,1782.24v.05c-2.24.65-4.44,1.3-6.67,1.92,2.24-.63,4.44-1.3,6.67-1.97Z"/><path d="m867.41,1784.21l-1.6-246.15-.05-7.64,6.69,3.57,1.63,248.25c-2.24.67-4.44,1.33-6.67,1.97Z"/><path d="m874.14,1789.19c-2.22.67-4.45,1.32-6.69,1.93l-.03-6.92c2.24-.62,4.44-1.27,6.67-1.92l.05,6.91Z"/><polygon points="865.71 1530.41 865.76 1538.05 510.64 1342.11 510.64 1334.48 865.71 1530.41"/><path d="m844.66,2029.49c-31.19,5.15-63.55,7.72-96.94,7.72-57.41,0-117.86-7.61-180.74-22.77-19.35-4.65-38.16-9.87-56.34-15.45v-6.99c18.71,5.79,38.13,11.19,58.09,16,98.52,23.75,191.06,28.76,274.96,14.88,8.47-1.4,16.88-3,25.22-4.8l.03,6.84c-8.01,1.68-16.11,3.22-24.29,4.57Z"/><path d="m510.64,1763.21v-7.07c32.46,11.59,70.79,23.15,112.28,31.52,70.99,14.33,137.34,16.71,197.22,7.07,16.21-2.62,31.99-6.12,47.27-10.52l.03,6.92c-14.98,4.25-30.46,7.64-46.34,10.21-24.35,3.9-49.77,5.87-76.09,5.87-39.26,0-80.61-4.35-123.59-13.04-40.83-8.26-78.59-19.55-110.78-30.96Z"/><path d="m510.64,1342.11v414.03c-.3-.1-.58-.22-.88-.32-1.93-.72-3.87-1.4-5.79-2.1v-422.85l6.67,3.62v7.62Z"/><polygon points="510.64 1078.36 510.64 1085.96 503.97 1082.28 503.97 1074.67 510.64 1078.36"/><polygon points="510.64 352.64 510.64 1078.36 503.97 1074.67 503.97 349.14 510.64 352.64"/><polygon points="510.64 345.12 510.64 352.64 503.97 349.14 503.97 341.6 510.64 345.12"/><path d="m510.64,1756.14v7.07c-2.24-.8-4.47-1.6-6.67-2.4v-7.06c1.92.68,3.85,1.37,5.79,2.07.3.1.58.22.88.32Z"/><path d="m503.97,1989.93c2.24.72,4.44,1.4,6.67,2.08v6.99c-2.24-.68-4.44-1.37-6.67-2.07v-7.01Z"/><path d="m509.76,1755.82c-1.93-.7-3.87-1.38-5.79-2.07v-.03c1.92.7,3.85,1.38,5.79,2.1Z"/><polygon points="503.97 341.6 503.97 349.14 293.01 238.32 293.01 230.78 503.97 341.6"/><path d="m503.97,1996.93c-95.74-30.07-172.73-69.74-210.96-91.25v-7.66c36.43,20.7,113.85,61.2,210.96,91.9v7.01Z"/><path class="cls-1" d="m874.09,1782.29v-.05l-1.63-248.25-6.69-3.57.05,7.64h-.05l-.05-7.64-355.07-195.93-6.67-3.62v429.94c2.2.8,4.44,1.6,6.67,2.4,32.19,11.41,69.95,22.7,110.78,30.96,42.98,8.69,84.33,13.04,123.59,13.04,26.32,0,51.74-1.97,76.09-5.87,15.88-2.57,31.36-5.95,46.34-10.21,2.24-.62,4.47-1.27,6.69-1.93l-.05-6.91Zm-370.11,207.64c-97.11-30.71-174.53-71.2-210.96-91.9V238.32l210.96,110.82v733.14l6.67,3.69,563.41,310.89,1.48,234.33.03,7.64,1.77,279.18c-59.38,48.42-126.96,81.46-201.79,98.61-2.2.52-4.44,1.02-6.64,1.48-8.34,1.8-16.75,3.4-25.22,4.8-83.9,13.88-176.43,8.87-274.96-14.88-19.97-4.8-39.38-10.21-58.09-16-2.24-.68-4.44-1.37-6.67-2.08Z"/><path d="m293.01,238.32v1659.71c-2.4-1.37-4.64-2.65-6.66-3.84V234.82l6.66,3.5Z"/><polygon points="293.01 230.78 293.01 238.32 286.36 234.82 286.36 227.28 293.01 230.78"/><path d="m286.36,1894.19c2.02,1.18,4.25,2.47,6.66,3.84v7.66c-2.37-1.33-4.6-2.59-6.66-3.79v-7.71Z"/></g><g><path class="cls-2" d="m1083.98,1912.49l.07,8.64c-2.2,1.83-4.4,3.64-6.64,5.39"/><path class="cls-2" d="m1082.28,1642.52l1.7,269.97c-2.2,1.87-4.4,3.7-6.64,5.5l-1.77-279.18"/><polyline class="cls-2" points="1082.23 1634.86 1082.28 1642.52 1075.57 1638.81 1075.54 1631.17"/><polyline class="cls-2" points="1080.74 1400.55 1082.23 1634.86 1075.54 1631.17 1074.05 1396.85"/><polyline class="cls-2" points="1074 1389.21 1080.71 1392.91 1080.74 1400.55 1074.05 1396.85"/><path class="cls-2" d="m875.55,2016.6c74.82-17.15,142.41-50.19,201.79-98.61l.07,8.52c-59.55,47.55-127.16,80.03-201.79,96.92"/><polyline class="cls-2" points="510.64 1078.36 1074 1389.21 1074.05 1396.85 510.64 1085.96"/><path class="cls-2" d="m868.91,2018.08c2.2-.47,4.44-.97,6.64-1.48l.07,6.84c-2.24.5-4.44,1-6.67,1.48"/><path class="cls-2" d="m867.41,1784.21c2.24-.63,4.44-1.3,6.67-1.97"/><path class="cls-2" d="m874.09,1782.29l.05,6.91c-2.22.67-4.45,1.32-6.69,1.93"/><polyline class="cls-2" points="867.41 1784.21 865.81 1538.05 865.76 1530.41 872.45 1533.98 874.09 1782.24 874.09 1782.29"/><path class="cls-2" d="m510.64,1992.01c18.71,5.79,38.13,11.19,58.09,16,98.52,23.75,191.06,28.76,274.96,14.88,8.47-1.4,16.88-3,25.22-4.8l.03,6.84c-8.01,1.68-16.11,3.22-24.29,4.57-31.19,5.15-63.55,7.72-96.94,7.72-57.41,0-117.86-7.61-180.74-22.77-19.35-4.65-38.16-9.87-56.34-15.45"/><path class="cls-2" d="m510.64,1756.14c32.46,11.59,70.79,23.15,112.28,31.52,70.99,14.33,137.34,16.71,197.22,7.07,16.21-2.62,31.99-6.12,47.27-10.52l.03,6.92c-14.98,4.25-30.46,7.64-46.34,10.21-24.35,3.9-49.77,5.87-76.09,5.87-39.26,0-80.61-4.35-123.59-13.04-40.83-8.26-78.59-19.55-110.78-30.96"/><polyline class="cls-2" points="510.64 1334.48 865.71 1530.41 865.76 1538.05 510.64 1342.11"/><path class="cls-2" d="m503.97,1989.93c2.24.72,4.44,1.4,6.67,2.08v6.99c-2.24-.68-4.44-1.37-6.67-2.07"/><path class="cls-2" d="m510.64,1756.14v7.07c-2.24-.8-4.47-1.6-6.67-2.4v-7.06"/><path class="cls-2" d="m503.97,1753.75v-422.89l6.67,3.62v421.65c-.3-.1-.58-.22-.88-.32"/><polyline class="cls-2" points="510.64 1078.36 510.64 1085.96 503.97 1082.28 503.97 1074.67"/><polyline class="cls-2" points="510.64 352.64 510.64 1078.36 503.97 1074.67 503.97 349.14"/><polyline class="cls-2" points="503.97 341.6 510.64 345.12 510.64 352.64 503.97 349.14"/><path class="cls-2" d="m293.01,1898.03c36.43,20.7,113.85,61.2,210.96,91.9v7.01c-95.74-30.07-172.73-69.74-210.96-91.25"/><polyline class="cls-2" points="293.01 230.78 503.97 341.6 503.97 349.14 293.01 238.32"/><path class="cls-2" d="m293.01,1898.03v7.66c-2.37-1.33-4.6-2.59-6.66-3.79v-7.71"/><path class="cls-2" d="m293.01,238.32v1659.71c-2.4-1.37-4.64-2.65-6.66-3.84V234.82"/><polygon class="cls-2" points="293.01 230.78 293.01 238.32 286.36 234.82 286.36 227.28 293.01 230.78"/></g></svg>