<?xml version="1.0" encoding="UTF-8"?><svg id="Layer_1" xmlns="http://www.w3.org/2000/svg" viewBox="0 0 1153.15 1386.75"><defs><style>.cls-1{fill:#fd8524;}.cls-2{fill:#30a7b7;}.cls-3{fill:none;stroke:#fd8524;stroke-miterlimit:10;stroke-width:4px;}</style></defs><path class="cls-2" d="m699.21,17.58c-.14.17-.28.34-.41.52.14-.2.45-.6.59-.77"/><path class="cls-2" d="m698.8,18.1s-.04.05-.06.08c.01-.01.03-.04.06-.08Z"/><g><g><path class="cls-1" d="m649.99,1041.95v1.9c.94-.19,1.88-.39,2.81-.59v-2.8c-.94.21-1.88.41-2.82.59v.9Zm-151.07-12.39c-.33-.1-.66-.2-.99-.31l-1.8-4.21c-40.89-12.8-73.47-25.93-88.8-34.49l12.69-675.62,79.65,41.19-1.58,297.4-.02,3.12,2.81,1.53,236.98,128.69.12,96.05v3.13s.14,112.26.14,112.26v2.18s0,3.49,0,3.49c.95-.71,1.88-1.45,2.81-2.19v-3.54s0-2.11,0-2.11c0,0,.02-.01.03-.02v41.95c-21.63,5.5-58.89,12.11-90.93,13.68l.1,1.94c-18.25.87-36.45,1.3-50.05.52-24.45-1.41-49.66-3.85-76.07-10.52-8.52-2.15-15.91-4.21-24.53-6.73l.42-1.99.53.17-.38-.88-1.15-2.69v-2Zm153.78-82.32v-2.83s0-.02,0-.02l-.14-101.76-2.82-1.48h-.01s-149.35-81.11-149.35-81.11h0s-2.81-1.5-2.81-1.5l-.92,173.33v.02s-.02,2.89-.02,2.89c.92.33,1.86.67,2.81,1,13.55,4.75,29.45,9.46,46.66,12.94,18.12,3.66,35.54,5.53,52.11,5.62,11.1.06,21.82-.69,32.1-2.24,6.71-1.02,13.24-2.37,19.57-4.08.94-.25,1.89-.51,2.82-.78Z"/><path class="cls-1" d="m740.95,998.24v3.54c-.93.75-1.86,1.48-2.81,2.19v-3.49c.94-.73,1.88-1.48,2.81-2.24Z"/><path class="cls-1" d="m740.95,998.24c-.93.76-1.87,1.51-2.81,2.24v-2.18c.94-.71,1.88-1.44,2.81-2.17v2.11Z"/><path class="cls-1" d="m740.82,887.57l.13,108.56c-.93.73-1.87,1.45-2.81,2.17l-.14-112.26,2.82,1.53Z"/><polygon class="cls-1" points="740.81 884.44 740.82 887.57 738 886.04 737.99 882.91 740.81 884.44"/><polygon class="cls-1" points="740.7 788.39 740.81 884.44 737.99 882.91 737.88 786.86 740.7 788.39"/><polygon class="cls-1" points="740.69 785.26 740.7 788.39 737.88 786.86 737.88 783.72 740.69 785.26"/><polygon class="cls-1" points="737.88 783.72 737.88 786.86 500.89 658.16 500.91 655.05 737.88 783.72"/><path class="cls-1" d="m652.8,1040.45v2.8c-.93.2-1.87.4-2.81.59v-1.9s0-.9,0-.9c.94-.19,1.88-.39,2.81-.59Z"/><path class="cls-1" d="m652.69,944.4v2.83c-.92.27-1.87.53-2.81.78v-2.84c.94-.25,1.88-.51,2.81-.77Z"/><path class="cls-1" d="m652.69,944.38v.02c-.94.26-1.87.52-2.81.77.94-.25,1.87-.52,2.81-.79Z"/><path class="cls-1" d="m649.87,945.17l-.15-104.03,2.82,1.48.14,101.76c-.94.27-1.87.54-2.81.79Z"/><polygon class="cls-1" points="649.71 841.14 649.71 844.27 500.34 763.16 500.35 760.04 500.35 760.03 649.71 841.14"/><path class="cls-1" d="m500.06,1034.24l.38.88-.53-.17.15-.71Z"/><path class="cls-1" d="m499.44,932.87c13.67,4.82,29.8,9.65,47.29,13.17,29.92,6.03,57.9,7.16,83.18,3.34,6.85-1.04,13.52-2.44,19.97-4.21v2.84c-6.34,1.71-12.87,3.06-19.58,4.08-10.28,1.55-21,2.3-32.1,2.24-16.57-.09-33.99-1.96-52.11-5.62-17.21-3.48-33.1-8.19-46.66-12.94l.02-2.9Z"/><path class="cls-1" d="m498.92,1031.55l1.15,2.69-.15.71c-40.12-12.55-76.59-32.4-92.6-41.27v-2.81s.02,0,.02,0v-.33c15.33,8.57,47.91,21.69,88.8,34.49l1.8,4.21c-.61-.18-1.22-.37-1.82-.56l-.02,2.87c.93.29,1.87.58,2.81.86v-.87Z"/><path class="cls-1" d="m498.92,1031.55v.87c-.95-.29-1.88-.57-2.81-.86l.02-2.87c.6.19,1.21.38,1.82.56l.98,2.3Z"/><path class="cls-1" d="m498.93,1029.56v2s-.99-2.3-.99-2.3c.33.1.66.21.99.31Z"/><path class="cls-1" d="m500.34,763.16l-.9,169.71c-.95-.34-1.88-.67-2.81-1.01l.92-173.33,2.81,1.51-.02,3.12Z"/><polygon class="cls-1" points="500.91 655.05 500.89 658.16 498.09 656.64 498.1 653.52 500.91 655.05"/><polygon class="cls-1" points="502.49 357.57 500.91 655.05 498.1 653.52 499.68 356.12 502.49 357.57"/><polygon class="cls-1" points="502.5 354.49 502.49 357.57 499.68 356.12 499.7 353.03 502.5 354.49"/><path class="cls-1" d="m499.44,932.87c-.95-.33-1.88-.66-2.81-.99v-.02c.93.33,1.86.67,2.81,1.01Z"/><path class="cls-1" d="m496.63,931.88c.93.33,1.86.65,2.81.99l-.02,2.9c-.95-.33-1.89-.67-2.81-1l.02-2.89Z"/><polygon class="cls-1" points="499.7 353.03 499.68 356.12 420.03 314.93 420.08 312.2 420.22 311.94 499.7 353.03"/><polygon class="cls-1" points="410.95 307.14 420.22 311.94 420.08 312.2 410.93 309.84 410.95 307.14"/><polygon class="cls-1" points="420.08 312.2 420.03 314.93 410.93 310.23 410.93 309.84 420.08 312.2"/><path class="cls-1" d="m420.03,314.93l-12.69,675.62s0,0-.01,0c-1.01-.57-1.94-1.1-2.8-1.58l3.6-679.85,2.8,1.12,9.1,4.7Z"/><path class="cls-1" d="m407.34,990.55v.33s-.02,0-.02,0v-.33s0,0,.02,0Z"/><path class="cls-1" d="m407.32,990.87v2.81c-1.02-.55-1.95-1.07-2.82-1.57l.02-3.16s0,0,0,0v.33c.85.49,1.79,1.02,2.8,1.58Z"/><path class="cls-1" d="m407.33,990.54v.33c-1.01-.56-1.94-1.09-2.8-1.58v-.33c.86.48,1.79,1.01,2.8,1.58Z"/><polygon class="cls-1" points="410.93 309.84 410.93 310.23 408.13 309.11 410.93 309.84"/><polygon class="cls-1" points="410.95 307.14 410.93 309.84 408.13 309.11 408.14 305.69 410.95 307.14"/></g><g><line class="cls-3" x1="738.13" y1="998.3" x2="738" y2="886.04"/><polyline class="cls-3" points="740.82 887.57 740.95 996.13 740.95 998.24"/><polyline class="cls-3" points="740.81 884.44 740.82 887.57 738 886.04 737.99 882.91"/><polyline class="cls-3" points="740.7 788.39 740.81 884.44 737.99 882.91 737.88 786.86"/><polyline class="cls-3" points="737.88 783.72 740.69 785.26 740.7 788.39 737.88 786.86"/><path class="cls-3" d="m652.83,1038.32c30.42-6.61,60.65-21.34,85.31-40.02.95-.71,1.89-1.44,2.81-2.17,0,0,.02-.01.03-.02v41.95c-21.63,5.5-58.89,12.11-90.93,13.68-1.03.05-2.06.09-3.08.13"/><polyline class="cls-3" points="500.91 655.05 737.88 783.72 737.88 786.86 500.89 658.16"/><path class="cls-3" d="m649.87,945.17c.94-.25,1.87-.52,2.81-.79"/><path class="cls-3" d="m652.69,944.4v2.83c-.92.27-1.87.53-2.81.78"/><path class="cls-3" d="m649.72,841.14l2.82,1.48.14,101.76v.02c-.94.26-1.87.52-2.81.77l-.15-104.03Z"/><path class="cls-3" d="m500.06,1034.24l.88-4.18c7.88,2.41,16.05,4.67,24.46,6.69,41.52,9.96,80.53,12.21,115.95,6.71,2.9-.45,5.78-.95,8.63-1.51.68-.13,1.35-.26,2.01-.4"/><path class="cls-3" d="m499.44,932.87c13.67,4.82,29.8,9.65,47.29,13.17,29.92,6.03,57.9,7.16,83.18,3.34,6.85-1.04,13.52-2.44,19.97-4.21v2.84c-6.34,1.71-12.87,3.06-19.58,4.08-10.28,1.55-21,2.3-32.1,2.24-16.57-.09-33.99-1.96-52.11-5.62-17.21-3.48-33.1-8.19-46.66-12.94"/><polyline class="cls-3" points="500.35 760.04 500.35 760.03 649.71 841.14 649.71 844.27 500.34 763.16"/><path class="cls-3" d="m497.94,1029.25c.33.1.66.21.99.31v2"/><path class="cls-3" d="m496.63,931.86c.93.33,1.86.67,2.81,1.01l-.02,2.9c-.95-.33-1.89-.67-2.81-1l.02-2.89"/><path class="cls-3" d="m500.35,760.04l-.02,3.12-.9,169.71c-.95-.33-1.88-.66-2.81-.99v-.02s.92-173.33.92-173.33l2.81,1.51Z"/><polyline class="cls-3" points="500.91 655.05 500.89 658.16 498.09 656.64 498.1 653.52"/><polyline class="cls-3" points="502.49 357.57 500.91 655.05 498.1 653.52 499.68 356.12"/><polyline class="cls-3" points="499.7 353.03 502.5 354.49 502.49 357.57 499.68 356.12"/><path class="cls-3" d="m407.34,990.55c15.32,8.57,47.91,21.69,88.8,34.49l1.8,4.21.98,2.3,1.15,2.69.38.88-.53-.17c-40.12-12.55-76.59-32.4-92.6-41.27"/><polyline class="cls-3" points="410.95 307.14 420.22 311.94 499.7 353.03 499.68 356.12 420.03 314.93"/><path class="cls-3" d="m407.32,990.87v2.81c-1.02-.55-1.95-1.07-2.82-1.57l.02-3.16s0,0,0,0"/><path class="cls-3" d="m420.08,312.2l-.05,2.73-12.69,675.62v.33s-.02,0-.02,0c-1.01-.56-1.94-1.09-2.8-1.58v-.33s3.6-679.85,3.6-679.85l2.8.73,9.15,2.36Z"/><polyline class="cls-3" points="408.13 309.11 408.14 305.69 410.95 307.14 410.93 309.84"/></g></g></svg>