<?xml version="1.0" encoding="UTF-8"?><svg id="Layer_1" xmlns="http://www.w3.org/2000/svg" viewBox="0 0 1403.08 2208"><defs><style>.cls-1{fill:#fd8524;}.cls-2{fill:none;stroke:#fff;stroke-miterlimit:10;stroke-width:4px;}</style></defs><g><path class="cls-1" d="m1083.99,1912.49l.05,8.64c-2.2,1.83-4.4,3.64-6.64,5.39l-.05-8.52c2.24-1.8,4.44-3.64,6.64-5.5Z"/><path class="cls-1" d="m1082.29,1642.52l1.7,269.97c-2.2,1.87-4.4,3.7-6.64,5.5l-1.77-279.18,6.71,3.7Z"/><polygon class="cls-1" points="1082.24 1634.86 1082.29 1642.52 1075.58 1638.81 1075.53 1631.17 1082.24 1634.86"/><polygon class="cls-1" points="1080.75 1400.55 1082.24 1634.86 1075.53 1631.17 1074.05 1396.85 1080.75 1400.55"/><polygon class="cls-1" points="1080.7 1392.91 1080.75 1400.55 1074.05 1396.85 1074.02 1389.21 1080.7 1392.91"/><path class="cls-1" d="m1077.35,1917.99l.05,8.52c-59.55,47.55-127.15,80.03-201.79,96.92l-.05-6.84c74.81-17.15,142.41-50.19,201.79-98.61Z"/><path class="cls-1" d="m1075.58,1638.81l1.77,279.18c-59.38,48.42-126.98,81.46-201.79,98.61-2.2.52-4.44,1.02-6.66,1.48-8.32,1.8-16.73,3.4-25.22,4.8-83.9,13.88-176.42,8.87-274.96-14.88-19.97-4.8-39.36-10.21-58.08-16-2.24-.68-4.45-1.37-6.67-2.08-97.12-30.71-174.55-71.2-210.96-91.9V238.32l210.96,110.82v733.14l6.67,3.69,563.39,310.89,1.48,234.33.05,7.64Zm-201.45,150.38l-.05-6.91v-.05l-1.62-248.25-6.71-3.57h-.03l-355.07-195.93-6.67-3.62v429.94c2.18.8,4.42,1.6,6.67,2.4,32.19,11.41,69.94,22.7,110.77,30.96,43,8.69,84.33,13.04,123.61,13.04,26.32,0,51.72-1.97,76.07-5.87,15.9-2.57,31.36-5.95,46.35-10.21,2.24-.62,4.47-1.27,6.67-1.93Z"/><polygon class="cls-1" points="1074.02 1389.21 1074.05 1396.85 510.66 1085.96 510.66 1078.36 1074.02 1389.21"/><path class="cls-1" d="m875.57,2016.6l.05,6.84c-2.22.5-4.44,1-6.67,1.48l-.03-6.84c2.22-.47,4.45-.97,6.66-1.48Z"/><path class="cls-1" d="m874.08,1782.29l.05,6.91c-2.2.67-4.44,1.32-6.67,1.93l-.03-6.92c2.22-.62,4.44-1.27,6.66-1.92Z"/><path class="cls-1" d="m874.08,1782.24v.05c-2.22.65-4.44,1.3-6.66,1.92,2.22-.63,4.44-1.3,6.66-1.97Z"/><path class="cls-1" d="m867.43,1784.21l-1.67-253.79,6.71,3.57,1.62,248.25c-2.22.67-4.44,1.33-6.66,1.97Z"/><path class="cls-1" d="m868.91,2018.08l.03,6.84c-8.01,1.68-16.1,3.22-24.27,4.57-31.19,5.15-63.56,7.72-96.96,7.72-57.41,0-117.86-7.61-180.74-22.77-19.33-4.65-38.15-9.87-56.33-15.45v-6.99c18.71,5.79,38.11,11.19,58.08,16,98.54,23.75,191.06,28.76,274.96,14.88,8.49-1.4,16.9-3,25.22-4.8Z"/><polygon class="cls-1" points="865.73 1530.41 865.76 1538.05 510.66 1342.11 510.66 1334.48 865.73 1530.41"/><path class="cls-1" d="m510.66,1756.14c32.46,11.59,70.77,23.15,112.27,31.52,71,14.33,137.35,16.71,197.22,7.07,16.23-2.62,32.01-6.12,47.29-10.52l.03,6.92c-14.99,4.25-30.46,7.64-46.35,10.21-24.35,3.9-49.75,5.87-76.07,5.87-39.28,0-80.61-4.35-123.61-13.04-40.83-8.26-78.58-19.55-110.77-30.96v-7.07Z"/><path class="cls-1" d="m510.66,1342.11v414.03c-2.25-.82-4.47-1.62-6.67-2.42v-422.85l6.67,3.62v7.62Z"/><polygon class="cls-1" points="510.66 1078.36 510.66 1085.96 503.99 1082.28 503.99 1074.67 510.66 1078.36"/><polygon class="cls-1" points="510.66 352.64 510.66 1078.36 503.99 1074.67 503.99 349.14 510.66 352.64"/><polygon class="cls-1" points="510.66 345.12 510.66 352.64 503.99 349.14 503.99 341.6 510.66 345.12"/><path class="cls-1" d="m510.66,1756.14c-2.25-.8-4.47-1.6-6.67-2.39v-.03c2.2.8,4.42,1.6,6.67,2.42Z"/><path class="cls-1" d="m503.99,1753.75c2.2.78,4.42,1.58,6.67,2.39v7.07c-2.25-.8-4.49-1.6-6.67-2.4v-7.06Z"/><path class="cls-1" d="m510.66,1992.01v6.99c-2.24-.68-4.45-1.37-6.67-2.07v-7.01c2.22.72,4.44,1.4,6.67,2.08Z"/><polygon class="cls-1" points="503.99 341.6 503.99 349.14 293.03 238.32 293.03 230.78 503.99 341.6"/><path class="cls-1" d="m503.99,1989.93v7.01c-95.74-30.07-172.73-69.74-210.96-91.25v-7.66c36.41,20.7,113.84,61.2,210.96,91.9Z"/><path class="cls-1" d="m293.03,238.32v1659.71c-2.4-1.37-4.64-2.65-6.67-3.84V234.82l6.67,3.5Z"/><polygon class="cls-1" points="293.03 230.78 293.03 238.32 286.35 234.82 286.35 227.28 293.03 230.78"/><path class="cls-1" d="m293.03,1898.03v7.66c-2.39-1.33-4.6-2.59-6.67-3.79v-7.71c2.03,1.18,4.27,2.47,6.67,3.84Z"/></g><g><path class="cls-2" d="m1083.99,1912.49l.05,8.64c-2.2,1.83-4.4,3.64-6.64,5.39"/><path class="cls-2" d="m1082.29,1642.52l1.7,269.97c-2.2,1.87-4.4,3.7-6.64,5.5l-1.77-279.18"/><polyline class="cls-2" points="1082.24 1634.86 1082.29 1642.52 1075.58 1638.81 1075.53 1631.17"/><polyline class="cls-2" points="1080.75 1400.55 1082.24 1634.86 1075.53 1631.17 1074.05 1396.85"/><polyline class="cls-2" points="1074.02 1389.21 1080.7 1392.91 1080.75 1400.55 1074.05 1396.85"/><path class="cls-2" d="m875.57,2016.6c74.81-17.15,142.41-50.19,201.79-98.61l.05,8.52c-59.55,47.55-127.15,80.03-201.79,96.92"/><polyline class="cls-2" points="510.66 1078.36 1074.02 1389.21 1074.05 1396.85 510.66 1085.96"/><path class="cls-2" d="m868.91,2018.08c2.22-.47,4.45-.97,6.66-1.48l.05,6.84c-2.22.5-4.44,1-6.67,1.48"/><path class="cls-2" d="m867.43,1784.21c2.22-.63,4.44-1.3,6.66-1.97"/><path class="cls-2" d="m874.08,1782.29l.05,6.91c-2.2.67-4.44,1.32-6.67,1.93"/><path class="cls-2" d="m865.76,1530.41l6.71,3.57,1.62,248.25v.05c-2.22.65-4.44,1.3-6.66,1.92l-1.67-253.79Z"/><path class="cls-2" d="m510.66,1992.01c18.71,5.79,38.11,11.19,58.08,16,98.54,23.75,191.06,28.76,274.96,14.88,8.49-1.4,16.9-3,25.22-4.8l.03,6.84c-8.01,1.68-16.1,3.22-24.27,4.57-31.19,5.15-63.56,7.72-96.96,7.72-57.41,0-117.86-7.61-180.74-22.77-19.33-4.65-38.15-9.87-56.33-15.45"/><path class="cls-2" d="m510.66,1756.14c32.46,11.59,70.77,23.15,112.27,31.52,71,14.33,137.35,16.71,197.22,7.07,16.23-2.62,32.01-6.12,47.29-10.52l.03,6.92c-14.99,4.25-30.46,7.64-46.35,10.21-24.35,3.9-49.75,5.87-76.07,5.87-39.28,0-80.61-4.35-123.61-13.04-40.83-8.26-78.58-19.55-110.77-30.96"/><polyline class="cls-2" points="510.66 1334.48 865.73 1530.41 865.76 1538.05 510.66 1342.11"/><path class="cls-2" d="m503.99,1989.93c2.22.72,4.44,1.4,6.67,2.08v6.99c-2.24-.68-4.45-1.37-6.67-2.07"/><path class="cls-2" d="m503.99,1753.72c2.2.8,4.42,1.6,6.67,2.42v7.07c-2.25-.8-4.49-1.6-6.67-2.4v-7.06"/><path class="cls-2" d="m510.66,1334.48v421.65c-2.25-.8-4.47-1.6-6.67-2.39v-422.89l6.67,3.62Z"/><polyline class="cls-2" points="510.66 1078.36 510.66 1085.96 503.99 1082.28 503.99 1074.67"/><polyline class="cls-2" points="510.66 352.64 510.66 1078.36 503.99 1074.67 503.99 349.14"/><polyline class="cls-2" points="503.99 341.6 510.66 345.12 510.66 352.64 503.99 349.14"/><path class="cls-2" d="m293.03,1898.03c36.41,20.7,113.84,61.2,210.96,91.9v7.01c-95.74-30.07-172.73-69.74-210.96-91.25"/><polyline class="cls-2" points="293.03 230.78 503.99 341.6 503.99 349.14 293.03 238.32"/><path class="cls-2" d="m293.03,1898.03v7.66c-2.39-1.33-4.6-2.59-6.67-3.79v-7.71"/><path class="cls-2" d="m293.03,238.32v1659.71c-2.4-1.37-4.64-2.65-6.67-3.84V234.82"/><polygon class="cls-2" points="293.03 230.78 293.03 238.32 286.35 234.82 286.35 227.28 293.03 230.78"/></g></svg>